<svg xmlns="http://www.w3.org/2000/svg" viewBox="0 0 32 32"><rect x="0.5" y="0.5" width="31" height="31" fill="#050505" stroke="#2a2a2a"/><g fill="#fff"><rect x="7.15" y="9.15" width="1.7" height="1.7"/><rect x="9.15" y="9.15" width="1.7" height="1.7"/><rect x="11.15" y="9.15" width="1.7" height="1.7"/><rect x="17.15" y="9.15" width="1.7" height="1.7"/><rect x="19.15" y="9.15" width="1.7" height="1.7"/><rect x="21.15" y="9.15" width="1.7" height="1.7"/><rect x="23.15" y="9.15" width="1.7" height="1.7"/><rect x="5.15" y="11.15" width="1.7" height="1.7"/><rect x="13.15" y="11.15" width="1.7" height="1.7"/><rect x="17.15" y="11.15" width="1.7" height="1.7"/><rect x="25.15" y="11.15" width="1.7" height="1.7"/><rect x="5.15" y="13.15" width="1.7" height="1.7"/><rect x="17.15" y="13.15" width="1.7" height="1.7"/><rect x="25.15" y="13.15" width="1.7" height="1.7"/><rect x="7.15" y="15.15" width="1.7" height="1.7"/><rect x="9.15" y="15.15" width="1.7" height="1.7"/><rect x="11.15" y="15.15" width="1.7" height="1.7"/><rect x="17.15" y="15.15" width="1.7" height="1.7"/><rect x="19.15" y="15.15" width="1.7" height="1.7"/><rect x="21.15" y="15.15" width="1.7" height="1.7"/><rect x="23.15" y="15.15" width="1.7" height="1.7"/><rect x="13.15" y="17.15" width="1.7" height="1.7"/><rect x="17.15" y="17.15" width="1.7" height="1.7"/><rect x="5.15" y="19.15" width="1.7" height="1.7"/><rect x="13.15" y="19.15" width="1.7" height="1.7"/><rect x="17.15" y="19.15" width="1.7" height="1.7"/><rect x="7.15" y="21.15" width="1.7" height="1.7"/><rect x="9.15" y="21.15" width="1.7" height="1.7"/><rect x="11.15" y="21.15" width="1.7" height="1.7"/><rect x="17.15" y="21.15" width="1.7" height="1.7"/></g></svg>
